<svg width="106" height="40" viewBox="0 0 106 40" fill="none" xmlns="http://www.w3.org/2000/svg">
<g clip-path="url(#clip0_144_1455)">
<g clip-path="url(#clip1_144_1455)">
<path fill-rule="evenodd" clip-rule="evenodd" d="M20 40C8.954 40 0 31.046 0 20C0 8.954 8.954 0 20 0C31.046 0 40 8.954 40 20C40 31.046 31.046 40 20 40ZM4 20C4 27.264 9.163 33.321 16.02 34.704C17.642 35.03 19 33.657 19 32V8C19 6.343 17.643 4.969 16.02 5.296C9.162 6.68 4 12.736 4 20Z" fill="#FE7B30"/>
</g>
<path d="M49.4376 21.308C49.4376 20.3447 49.6303 19.5003 50.0156 18.775C50.4123 18.0383 50.9563 17.4717 51.6476 17.075C52.3389 16.6783 53.1323 16.48 54.0276 16.48C55.1609 16.48 56.0959 16.752 56.8326 17.296C57.5806 17.8287 58.0849 18.5937 58.3456 19.591H56.2546C56.0846 19.1263 55.8126 18.7637 55.4386 18.503C55.0646 18.2423 54.5943 18.112 54.0276 18.112C53.2343 18.112 52.5996 18.3953 52.1236 18.962C51.6589 19.5173 51.4266 20.2993 51.4266 21.308C51.4266 22.3167 51.6589 23.1043 52.1236 23.671C52.5996 24.2377 53.2343 24.521 54.0276 24.521C55.1496 24.521 55.8919 24.028 56.2546 23.042H58.3456C58.0736 23.994 57.5636 24.7533 56.8156 25.32C56.0676 25.8753 55.1383 26.153 54.0276 26.153C53.1323 26.153 52.3389 25.9547 51.6476 25.558C50.9563 25.15 50.4123 24.5833 50.0156 23.858C49.6303 23.1213 49.4376 22.2713 49.4376 21.308ZM62.215 13.42V26H60.277V13.42H62.215ZM64.1134 21.274C64.1134 20.3333 64.306 19.5003 64.6914 18.775C65.088 18.0497 65.6207 17.4887 66.2894 17.092C66.9694 16.684 67.7174 16.48 68.5334 16.48C69.27 16.48 69.9104 16.6273 70.4544 16.922C71.0097 17.2053 71.4517 17.5623 71.7804 17.993V16.633H73.7354V26H71.7804V24.606C71.4517 25.048 71.004 25.4163 70.4374 25.711C69.8707 26.0057 69.2247 26.153 68.4994 26.153C67.6947 26.153 66.958 25.949 66.2894 25.541C65.6207 25.1217 65.088 24.5437 64.6914 23.807C64.306 23.059 64.1134 22.2147 64.1134 21.274ZM71.7804 21.308C71.7804 20.662 71.6444 20.101 71.3724 19.625C71.1117 19.149 70.766 18.7863 70.3354 18.537C69.9047 18.2877 69.44 18.163 68.9414 18.163C68.4427 18.163 67.978 18.2877 67.5474 18.537C67.1167 18.775 66.7654 19.132 66.4934 19.608C66.2327 20.0727 66.1024 20.628 66.1024 21.274C66.1024 21.92 66.2327 22.4867 66.4934 22.974C66.7654 23.4613 67.1167 23.8353 67.5474 24.096C67.9894 24.3453 68.454 24.47 68.9414 24.47C69.44 24.47 69.9047 24.3453 70.3354 24.096C70.766 23.8467 71.1117 23.484 71.3724 23.008C71.6444 22.5207 71.7804 21.954 71.7804 21.308ZM87.6199 16.48C88.3565 16.48 89.0139 16.633 89.5919 16.939C90.1812 17.245 90.6402 17.6983 90.9689 18.299C91.3089 18.8997 91.4789 19.625 91.4789 20.475V26H89.5579V20.764C89.5579 19.9253 89.3482 19.285 88.9289 18.843C88.5095 18.3897 87.9372 18.163 87.2119 18.163C86.4865 18.163 85.9085 18.3897 85.4779 18.843C85.0585 19.285 84.8489 19.9253 84.8489 20.764V26H82.9279V20.764C82.9279 19.9253 82.7182 19.285 82.2989 18.843C81.8795 18.3897 81.3072 18.163 80.5819 18.163C79.8565 18.163 79.2785 18.3897 78.8479 18.843C78.4285 19.285 78.2189 19.9253 78.2189 20.764V26H76.2809V16.633H78.2189V17.704C78.5362 17.3187 78.9385 17.0183 79.4259 16.803C79.9132 16.5877 80.4345 16.48 80.9899 16.48C81.7379 16.48 82.4065 16.6387 82.9959 16.956C83.5852 17.2733 84.0385 17.7323 84.3559 18.333C84.6392 17.7663 85.0812 17.3187 85.6819 16.99C86.2825 16.65 86.9285 16.48 87.6199 16.48ZM95.8829 18.01C96.2116 17.5793 96.6593 17.2167 97.2259 16.922C97.7926 16.6273 98.4329 16.48 99.1469 16.48C99.9629 16.48 100.705 16.684 101.374 17.092C102.054 17.4887 102.587 18.0497 102.972 18.775C103.357 19.5003 103.55 20.3333 103.55 21.274C103.55 22.2147 103.357 23.059 102.972 23.807C102.587 24.5437 102.054 25.1217 101.374 25.541C100.705 25.949 99.9629 26.153 99.1469 26.153C98.4329 26.153 97.7983 26.0113 97.2429 25.728C96.6876 25.4333 96.2343 25.0707 95.8829 24.64V30.454H93.9449V16.633H95.8829V18.01ZM101.578 21.274C101.578 20.628 101.442 20.0727 101.17 19.608C100.909 19.132 100.558 18.775 100.116 18.537C99.6853 18.2877 99.2206 18.163 98.7219 18.163C98.2346 18.163 97.7699 18.2877 97.3279 18.537C96.8973 18.7863 96.5459 19.149 96.2739 19.625C96.0133 20.101 95.8829 20.662 95.8829 21.308C95.8829 21.954 96.0133 22.5207 96.2739 23.008C96.5459 23.484 96.8973 23.8467 97.3279 24.096C97.7699 24.3453 98.2346 24.47 98.7219 24.47C99.2206 24.47 99.6853 24.3453 100.116 24.096C100.558 23.8353 100.909 23.4613 101.17 22.974C101.442 22.4867 101.578 21.92 101.578 21.274Z" fill="black"/>
</g>
<defs>
<clipPath id="clip0_144_1455">
<rect width="106" height="40" fill="white"/>
</clipPath>
<clipPath id="clip1_144_1455">
<rect width="40" height="40" fill="white"/>
</clipPath>
</defs>
</svg>
