<svg width="408" height="439" viewBox="0 0 408 439" fill="none" xmlns="http://www.w3.org/2000/svg">
<path d="M15.5982 422.713C14.7742 422.586 14.0091 422.209 13.4061 421.633C12.8031 421.057 12.3914 420.31 12.2265 419.493C11.3433 414.725 20.925 393.988 20.925 393.988C20.925 393.988 15.7984 388.613 18.4847 378.514C19.5864 374.374 27.8802 356.767 33.621 350.792C37.4712 346.783 44.431 342.884 50.181 344.248C50.411 344.301 48.7688 345.803 60.2757 332.205C72.9256 317.255 103.934 291.817 130.094 279.899C157.547 267.391 203.83 257.129 244.864 264.408C299.558 274.126 335.079 305.726 357.891 329.991C367.017 329.864 374.876 337.065 380.891 343.926C390.38 354.736 399.047 367.483 399.645 381.855C400.07 385.996 399.01 390.153 396.655 393.585C399.38 400.149 401.704 406.872 403.612 413.717C403.789 414.401 403.826 415.114 403.722 415.813C403.617 416.512 403.372 417.182 403.003 417.785C402.633 418.387 402.146 418.908 401.57 419.318C400.994 419.728 400.342 420.017 399.652 420.169C370.251 426.685 218.026 456.405 15.5982 422.713Z" fill="#FDF6F0"/>
<path d="M380.938 358.106C379.811 358.996 395.646 380.476 386.724 381.391C386.593 378.386 385.809 375.446 384.424 372.775C381.869 367.46 370.854 353.207 368.223 350.295C365.898 347.463 362.738 345.44 359.193 344.513C360.725 335.865 372.763 348.605 373.713 347.273C374.118 346.668 365.741 336.87 360.07 338.949C356.85 340.065 354.78 344.398 356.558 349.396C359.398 357.42 377.699 379.609 378.868 380.765C381.885 383.597 385.098 385.545 388.962 384.158C400.133 378.436 381.828 357.391 380.938 358.106ZM373.348 368.776C369.898 364.366 359.623 351.848 359.108 346.259C364.95 348.186 368.644 354.842 374.64 362.729C378.78 368.343 383.941 374.312 384.825 381.087C380.728 379.565 376.572 372.72 373.359 368.776H373.348Z" fill="#095D6A"/>
<path d="M327.226 397.079C326.014 375.229 290.605 363.635 290.164 366.979C289.885 368.145 302.837 370.802 314.502 382.465C325.63 393.749 323.136 403.821 317.952 405.571C319.146 399.034 314.994 392.921 309.847 388.762C302.653 382.923 292.953 380.618 283.924 378.412C271.386 375.461 252.446 372.131 244.688 382.695C239.764 362.202 279.48 367.929 279.811 366.503C280.619 363.84 241.728 357.48 239.455 377.64C239.085 380.97 239.706 384.335 241.242 387.313C242.778 390.29 245.159 392.748 248.087 394.377C255.569 398.977 264.553 397.882 272.81 398.94C294.037 401.454 301.468 410.189 313.651 410.944C322.761 411.383 327.545 405.72 327.226 397.079ZM285.688 396.454C266.025 391.09 253.278 396.29 246.266 386.152C251.043 375.74 272.456 379.887 282.976 382.389C294.085 385.055 309.762 388.693 314.297 399.8C315.16 401.763 315.388 403.946 314.951 406.045C306.664 406.192 299.35 400.177 285.688 396.454V396.454Z" fill="#095D6A"/>
<path d="M231.902 314.831C226.644 305.36 210.629 306.685 210.94 308.272C210.995 308.893 214.063 308.808 218.5 310.16C223.606 311.77 230.184 315.374 228.804 320.579C227.822 324.586 228.321 321.313 219.705 317.78C207.688 312.782 188.867 314.647 183.266 323.111C180.649 318.125 184.559 313.911 189.563 311.43C193.657 309.548 200.144 307.398 194.412 307.667C174.059 308.86 174.556 328.843 188.358 331.479C193.545 332.47 199.003 330.911 207.372 330.913C213.495 330.807 222.322 333.169 228.342 328.176C233.174 324.298 234.158 318.762 231.902 314.831ZM207.368 326.817C195.916 326.817 189.428 329.646 184.706 325.029C189.294 318.412 210.236 314.001 226.469 324.376C221.685 328.944 214.707 326.768 207.368 326.817Z" fill="#095D6A"/>
<path d="M35.7992 369.988C31.0359 378.808 27.7217 386.302 26.7212 385.984C25.8012 385.688 27.6412 377.398 32.5746 368.244C37.5081 359.09 43.4766 353.025 44.2333 353.646C45.0406 354.32 40.5648 361.167 35.7992 369.988Z" fill="#095D6A"/>
<path d="M151.478 375.02C140.251 360.668 113.781 374.438 114.997 376.347C115.614 377.444 132.188 370.218 142.724 374.169C148.732 376.95 148.881 380.006 146.328 383.369C145.608 384.319 143.064 381.63 133.678 381.738C117.24 381.872 99.6381 391.258 91.2546 404.485C86.9375 402.526 86.2544 399.386 88.2186 395.055C92.17 386.343 103.355 380.354 102.807 379.252C101.993 377.334 80.5458 387.937 82.5675 401.226C84.2074 408.911 92.6162 411.277 101.158 410.049C110.117 408.676 162.078 391.674 151.478 375.02ZM94.194 405.309C105.413 391.693 126.325 382.718 143.718 386.042C135.148 393.505 104.917 406.852 94.194 405.309Z" fill="#095D6A"/>
<path d="M288.852 343.471C285.257 339.745 286.072 336.044 289.206 335.361C293.755 335.136 298.253 336.401 302.017 338.963C305.927 341.493 313.897 347.287 300.904 340.962C293.521 337.367 288.933 338.544 289.669 338.515C289.669 338.515 289.653 338.482 289.685 338.664C289.542 342.763 312.05 354.198 308.86 346.505C307.383 343.411 308.782 344.504 309.92 345.829C312.466 348.786 309.732 356.455 293.696 346.875C291.923 345.985 290.291 344.838 288.852 343.471V343.471Z" fill="#095D6A"/>
<path d="M117.56 334.628C111.741 335.071 101.756 338.864 104.944 343.706C107.723 347.795 115.561 346.429 120.453 345.336C134.198 342.045 133.733 333.634 117.56 334.628ZM127.298 339.993C122.325 343.478 100.719 345.033 110.308 339.637C119.752 334.322 132.848 336.1 127.298 339.993Z" fill="#095D6A"/>
<path d="M181.017 359.072C172.095 367.143 164.97 362.982 166.18 357.984C166.64 356.061 169.43 353.087 168.068 356.604C167.826 357.028 167.688 357.503 167.666 357.99C167.643 358.477 167.737 358.963 167.939 359.406C168.142 359.85 168.446 360.24 168.829 360.543C169.211 360.846 169.66 361.053 170.138 361.149C173.195 361.869 179.883 357.308 180.304 355.157C180.582 352.975 180.598 350.992 174.191 353.071C162.679 356.804 172.811 351.139 176.491 350.104C179.844 349.414 182.616 349.849 183.108 353.248C183.296 354.317 183.202 355.416 182.836 356.438C182.469 357.459 181.842 358.367 181.017 359.072V359.072Z" fill="#095D6A"/>
<path d="M55.0159 404.874C51.2071 401.829 55.9635 396.164 61.0373 394.064C65.0485 392.408 66.4584 394.165 66.1617 394.345C64.641 394.452 63.1774 394.968 61.9251 395.837C56.2694 399.361 54.7951 403.998 58.6867 402.668C61.0886 401.668 63.2369 400.145 64.9749 398.209C65.5176 397.742 65.9171 397.132 66.1272 396.448C66.3372 395.764 66.3492 395.035 66.1617 394.345C66.3917 393.724 68.901 395.725 66.5619 399.405C64.2228 403.085 58.367 407.556 55.0159 404.874Z" fill="#095D6A"/>
<path d="M358.875 406.831C358.414 407.605 357.684 408.182 356.824 408.452C355.965 408.722 355.036 408.666 354.215 408.294C348.776 406.242 345.685 398.482 347.196 396.743C347.759 395.971 347.693 397.084 347.918 397.76C348.981 400.334 350.677 402.598 352.849 404.34C356.299 407.202 358.183 405.759 354.804 400.955C353.666 399.345 350.784 396.03 348.716 396.166C348.086 396.205 347.745 396.598 347.566 396.495C347.421 396.474 347.336 395.695 348.369 395.131C352.09 393.119 361.331 401.774 358.875 406.831Z" fill="#095D6A"/>
<path d="M227.412 389.74C225.165 383.571 225.666 379.431 225.979 379.452C226.853 379.349 228.509 398.121 245.826 404.982C253.402 407.988 261.5 407.995 269.61 409.527C275.937 410.723 279.512 412.689 279.344 413.025C279.167 413.458 275.491 412.28 269.297 411.661C257.137 410.451 235.48 411.871 227.412 389.74Z" fill="#095D6A"/>
<path d="M190.614 340.17C177.711 338.731 170.883 330.372 171.724 329.721C172.493 329.031 177.543 335.874 190.936 337.385C201.132 338.535 212.096 336.483 212.248 337.615C212.368 338.533 199.89 341.21 190.614 340.17Z" fill="#095D6A"/>
<path d="M158.659 393.781C149.882 404.044 131.96 412.068 131.33 410.585C130.916 409.607 147.152 401.792 155.94 391.479C161.568 384.873 162.136 378.946 159.211 372.462C157.371 368.366 154.496 364.686 154.963 364.291C155.577 363.766 172.47 377.633 158.659 393.781Z" fill="#095D6A"/>
<path d="M293.243 355.162C285.832 351.461 281.373 345.382 282.024 344.812C282.675 344.242 287.314 349.046 294.497 352.653C301.679 356.259 308.315 356.949 308.278 357.779C308.237 358.748 300.67 358.872 293.243 355.162Z" fill="#095D6A"/>
<path d="M403.048 404C398.535 390.694 398.751 395.046 400.444 391.375C408.374 373.304 383.249 330.588 357.894 327.341C276.359 229.973 127.445 239.251 50.248 341.815C34.3481 337.76 15.8699 369.415 15.3156 383.799C15.2732 387.556 16.3904 391.234 18.5149 394.333C16.9141 398.013 15.3999 401.73 13.9724 405.486C11.263 412.616 10.5753 418.881 11.8817 419.249C14.1495 419.895 19.0324 405.58 22.5077 397.486C32.5472 401.762 45.4732 385.259 43.5458 383.971C42.6097 383.346 30.2403 396.244 24.5869 393.135C13.0869 387.594 28.3428 359.631 36.1536 352.227C40.5236 347.983 48.8818 344.163 51.3336 347.914C55.2022 352.234 51.1795 369.442 52.3456 369.895C53.606 370.422 57.1457 361.526 57.3435 354.067C113.779 279.2 210.632 254.59 292.213 292.271C308.425 299.723 312.28 302.851 312.503 302.483C312.621 302.301 305.028 297.613 304.842 297.505C225.179 250.866 119.37 269.519 56.9847 349.228C56.6041 346.977 55.43 344.937 53.675 343.478C129.635 249.102 269.01 234.987 352.839 327.313C351.099 327.489 349.412 328.012 347.879 328.852C346.345 329.691 344.995 330.83 343.91 332.201C335.027 343.841 353.232 367.172 354.557 366.222C355.886 365.328 341.069 343.252 347.723 335.14C350.2 331.982 354.718 331.69 358.646 332.44C363.711 333.618 368.431 335.961 372.43 339.285C384.227 348.671 395.274 365.003 396.976 382.382C397.797 390.745 392.813 394.935 386.536 394.498C379.769 393.992 374.242 388.012 369.38 383.406C361.374 375.691 352.268 368.258 366.834 385.772C372.205 392.051 377.835 398.471 386.085 399.294C389.321 399.66 392.587 398.931 395.361 397.224C396.422 399.984 397.429 402.765 398.381 405.568C404.708 424.097 407.33 416.542 403.048 404Z" fill="#095D6A"/>
<path d="M101.338 278.42C105.372 274.469 112.118 265.657 111.182 260.128C110.147 254.026 91.4728 235.764 72.3368 232.85C63.5623 221.543 41.3743 207.658 34.0856 204.742C27.572 202.138 18.6365 201.131 13.4523 204.549C3.69801 210.989 7.35731 233.082 7.47231 238.064C7.75751 251.818 18.6204 270.241 18.234 274.163C17.9396 277.169 14.1837 276.996 16.5688 288.108C18.0664 295.43 19.9863 302.659 22.3188 309.76C23.6022 313.543 25.3916 317.626 29.0371 319.259C34.3501 321.633 44.9301 318.689 50.3673 315.726C52.2395 314.707 53.1779 314.562 54.7373 316.453C57.8032 320.193 61.4877 327.58 67.9415 327.074C69.7815 326.929 70.2415 325.94 70.1518 324.126C69.9834 320.226 68.9479 316.413 67.1204 312.964C69.3329 312.083 71.3318 310.74 72.9831 309.024C75.3728 311.425 83.1813 318.684 86.6244 318.93C90.0675 319.176 92.4365 315.153 92.0869 311.743C91.3467 308.384 89.9576 305.203 87.9975 302.377C86.6175 299.824 87.1741 299.96 92.6941 292.561C96.7559 298.021 98.4602 300.751 100.974 302.101C101.919 302.672 103.022 302.926 104.121 302.825C105.22 302.724 106.258 302.273 107.083 301.54C110.172 298.193 106.163 291.689 100.602 282.599C99.5481 280.886 99.578 280.127 101.338 278.42Z" fill="#FDF6F0"/>
<path d="M32.8436 256.897C32.4185 260.657 33.2763 264.451 35.2777 267.662C37.2791 270.874 40.3068 273.315 43.8698 274.591C46.287 275.468 48.8962 275.678 51.4227 275.198C53.9493 274.718 56.2997 273.566 58.2266 271.863C60.1536 270.16 61.5858 267.969 62.3726 265.52C63.1594 263.072 63.2717 260.457 62.6976 257.95C59.4914 242.834 35.9601 240.258 32.8436 256.897Z" fill="#FE7B30"/>
<path d="M58.3779 268.53C56.1639 271.249 52.9697 272.989 49.4844 273.374C45.999 273.759 42.502 272.759 39.7478 270.588C33.6068 266.152 33.8851 259.778 32.9444 259.831C32.2981 259.861 31.7944 267.513 37.9285 272.84C40.2396 274.931 43.1026 276.313 46.1769 276.823C49.2511 277.332 52.4071 276.948 55.2692 275.715C58.1312 274.483 60.5788 272.454 62.3206 269.87C64.0624 267.286 65.025 264.256 65.0939 261.14C65.1928 250.995 56.0548 242.147 45.8359 243.777C38.446 244.854 33.1859 250.19 32.6132 254.967C32.2429 257.469 32.673 258.803 32.9168 258.799C33.2319 258.81 33.3768 257.469 34.1519 255.379C36.3415 249.081 45.9049 244.897 52.9889 248.329C60.3651 251.811 63.7116 261.86 58.3779 268.53Z" fill="#095D6A"/>
<path d="M51.8049 284.557C71.8149 282.772 80.7297 259.44 66.8952 243.876C62.8424 239.267 57.2103 236.344 51.1088 235.681C45.0073 235.019 38.879 236.666 33.9316 240.298C32.4137 241.213 31.1338 242.474 30.1963 243.978C30.3527 244.141 31.6476 242.793 34.4675 241.121C55.6574 228.51 76.4977 249.44 69.7978 268.16C64.8551 282.406 45.7375 287.558 33.2001 275.851C25.2766 268.546 25.6446 259.183 24.9615 259.238C24.5015 259.238 24.375 269.572 31.9604 277.137C34.5388 279.73 37.6468 281.735 41.0718 283.015C44.4968 284.296 48.1579 284.822 51.8049 284.557V284.557Z" fill="#095D6A"/>
<path d="M107.649 250.868C98.1954 241.123 86.3052 234.087 73.2132 230.49C61.9661 218.709 48.6141 209.136 33.8463 202.265C-3.41376 187.409 -2.11885 236.482 15.1795 272.219C13.2113 286.937 15.5672 301.91 21.9599 315.312C22.5437 317.081 23.5958 318.658 25.0043 319.877C26.4128 321.095 28.1251 321.91 29.9593 322.233C37.041 323.753 46.7838 320.664 53.2951 316.913C54.6751 318.636 59.0796 323.891 60.5907 325.388C67.5253 332.265 73.7284 326.046 71.2099 318.948C68.4499 311.128 66.2465 315.866 73.9331 311.358C77.9328 315.74 82.6317 322.003 88.177 320.269C89.5758 319.787 90.8018 318.905 91.7018 317.731C92.6017 316.557 93.1357 315.143 93.237 313.668C93.6326 309.659 91.4453 305.388 89.1959 301.222C88.1172 299.217 88.6485 301.567 92.7356 295.012C97.3609 300.634 99.4585 303.373 102.771 304.072C104.174 304.312 105.615 303.99 106.783 303.176C107.951 302.362 108.751 301.12 109.01 299.72C109.914 295.985 107.582 291.645 105.33 287.76C100.017 278.652 99.7943 285.283 108.525 273.31C117.385 260.634 113.452 256.862 107.649 250.868ZM9.33747 236.696C12.8746 235.334 16.281 233.654 19.515 231.677C22.8132 229.589 24.575 227.903 24.3289 227.537C23.9632 226.967 21.033 228.779 8.89817 233.414C7.36406 220.138 9.06606 203.769 22.4084 204.418C28.738 204.677 36.282 208.495 41.7284 211.727C26.6749 225.377 26.1436 225.697 26.3828 226.074C26.622 226.452 29.2992 225.292 33.1563 222.654C37.149 219.828 40.9721 216.769 44.6057 213.493C74.2091 232.227 90.6725 258.313 93.2186 272.603C89.5386 275.382 80.7342 282.636 77.2106 285.826C68.9835 280.957 61.8328 288.105 62.6263 295.364C58.454 297.31 49.1919 302.129 45.1462 304.47C30.4285 293.566 14.0295 267.675 9.33747 236.696ZM27.5949 315.535C25.1523 312.007 18.7836 296.413 18.3673 278.317C25.6169 291.197 38.4716 307.92 52.9777 312.897C46.5975 316.198 31.3094 320.899 27.5949 315.535ZM67.0055 316.087C67.937 318.27 69.3998 321.311 68.5074 323.502C66.4052 328.666 61.0829 321.189 55.2938 315.682C58.6012 313.541 56.2667 314.192 61.1566 314.716C67.4816 315.351 65.6876 312.975 67.0055 316.087V316.087ZM61.5337 311.2C56.7304 310.541 52.115 308.897 47.9775 306.37C53.4189 304.281 58.592 301.552 63.3876 298.239C64.8067 301.657 67.9278 304.78 71.709 308.918C68.6294 310.699 65.0788 311.495 61.5337 311.2V311.2ZM89.2971 313.201C88.936 316.347 86.4313 317.865 82.8111 314.795C79.6541 311.872 76.6821 308.756 73.9124 305.464C69.6068 300.795 62.1065 294.681 68.3211 288.722C69.2073 287.877 70.3298 287.321 71.5393 287.129C72.7487 286.938 73.988 287.118 75.0923 287.648C79.9177 290.353 89.856 308.251 89.2971 313.201V313.201ZM79.5037 287.551C84.6768 284.333 89.4377 280.496 93.6809 276.125C94.0155 279.934 93.5936 283.771 92.4394 287.417C91.2852 291.062 89.4216 294.443 86.9557 297.365C84.8442 293.827 82.3447 290.535 79.5037 287.551V287.551ZM105.061 294.076C107.21 299.162 105.135 301.326 103.302 301.006C101.094 300.67 99.2906 298.127 93.9017 292.956C94.9742 290.909 95.815 288.749 96.4087 286.516C97.4184 285.596 98.4925 284.586 99.6057 283.496C101.698 286.875 103.522 290.412 105.061 294.076V294.076ZM97.4276 280.525C98.6259 265.368 87.51 247.552 78.0432 236.01C94.6354 243.672 108.863 257.472 108.918 260.986C108.346 267.359 101.632 275.584 97.4276 280.525Z" fill="#095D6A"/>
<path d="M270.657 146.494C277.389 138.776 277.357 140.128 283.12 142.559C304.147 151.426 374.143 187.282 374.373 187.409C386.72 194.516 392.228 195.211 386.871 207.858C381.351 220.904 366.493 249.838 357.737 260.657C353.66 265.257 350.069 270.267 347.024 275.607C342.313 284.533 329.774 290.801 333.599 292.436C349.354 299.159 352.935 305.891 357.137 320.006C357.355 320.74 357.284 321.048 356.523 321.487C353.79 323.07 347.323 326.303 344.65 324.599C342.438 323.185 341.807 318.187 337.444 312.122C334.904 308.832 331.528 306.283 327.668 304.74C323.808 303.198 319.606 302.718 315.498 303.352C307.908 305.045 311.475 305.026 237.297 345.824C216.696 357.153 211.537 354.835 205.845 366.346C201.325 375.482 201.183 385.998 194.605 388.41C191.939 389.388 185.925 388.919 183.565 386.49C179.537 382.35 183.371 367.768 185.041 362.227C186.895 356.079 185.487 357.807 191.385 352.484C195.957 348.358 190.131 345.251 120.101 295.985C119.068 295.436 117.891 295.221 116.731 295.368C108.373 313.672 119.896 326.377 102.83 324.716C99.5455 324.399 98.6485 323.721 97.5399 321.266C89.5037 303.361 97.6089 280.945 117.78 270.207C127.9 264.82 104.824 277.863 203.83 226.493C230.004 212.927 237.615 184.378 270.657 146.494Z" fill="#FE7B30"/>
<path d="M385.118 191.565C368.899 180.969 348.371 172.811 330.737 162.769C317.13 154.784 302.077 148.79 287.762 141.184C273.488 133.594 273.405 137.598 234.243 192.244C213.52 221.254 208.92 220.131 171.913 239.649C118.16 267.61 107.812 270.58 104.098 278.42C91.0312 293.262 89.9847 316.533 95.8175 324.777C98.0577 327.808 101.278 328.369 105.041 327.997C120.108 326.205 111.524 319.015 117.741 297.961C134.444 309.604 113.82 293.131 189.869 350.401C181.999 356.321 179.671 367.52 178.815 377.311C178.486 383.015 178.815 388.56 186.037 390.982C192.128 393.107 198.887 390.545 201.013 385.6C202.837 381.357 204.497 367.66 214.148 358.934C219.507 357.506 224.679 355.453 229.558 352.816C233.358 350.907 287.115 321.386 313.669 305.5C316.531 304.983 319.469 305.049 322.305 305.695C325.141 306.341 327.818 307.553 330.174 309.259C342.322 318.16 337.074 333.749 354.172 326.509C358.452 324.699 360.462 322.829 359.232 318.022C355.98 305.864 348.261 295.252 336.124 291.024C356.286 273.618 388.299 213.015 391.8 201.943C393.58 196.218 388.548 193.941 385.118 191.565ZM109.769 316.163C109.392 321.798 109.905 321.929 104.479 322.442C102.699 322.608 101.37 322.605 100.339 321.322C97.0595 316.688 96.8893 299.217 104.461 286.256C107.353 289.782 110.697 292.91 114.406 295.562C111.73 302.125 110.163 309.087 109.769 316.163V316.163ZM200.077 371.888C197.379 378.311 196.64 382.238 196.084 383.339C194.616 386.766 187.436 387.249 185.014 383.799C183.243 381.743 183.666 360.429 193.204 352.834C197.058 355.666 201.436 357.704 206.084 358.83C210.509 359.714 205.656 358.46 200.077 371.888ZM347.313 305.275C350.357 309.873 352.583 314.963 353.891 320.319C352.277 321.193 350.582 321.911 348.831 322.463C342.265 323.949 346.338 313.923 333.042 304.983C320.206 296.765 315.376 306.089 332.483 293.906C338.467 296.099 343.641 300.065 347.313 305.275V305.275ZM387.308 200.6C385.121 208.073 353.772 272.162 332.338 289.088C323.138 296.494 237.362 343.347 227.295 348.324C217.064 353.373 212.46 354.851 207.165 353.754C199.575 352.181 201.657 352.052 138.358 305.05C128.208 297.708 107.428 286.024 109.029 281.268C110.949 275.748 127.003 269.354 132.22 266.736C228.093 216.826 215.1 229.807 253.66 174.046C257.473 168.556 275.158 142.78 280.367 143.716C282.966 144.176 372.059 189.309 378.055 192.81C387.513 198.509 387.851 198.797 387.308 200.6V200.6Z" fill="#095D6A"/>
<path d="M362.998 173.788C363.142 163.84 361.249 153.967 357.435 144.778C353.622 135.588 347.969 127.276 340.823 120.352C316.301 96.0024 277.688 111.656 277.688 111.656L274.033 116.003C274.033 116.003 271.773 111.656 262.207 113.745C252.641 115.833 237.91 138.184 236.159 145.061C233.724 154.627 240.64 163.661 240.64 163.661C240.64 163.661 239.869 163.372 236.081 170.315C232.293 177.259 238.528 197.386 238.528 197.386C238.528 197.386 227.488 180.26 227.32 167.631C227.272 163.868 226.992 151.301 224.068 148.953C223.408 147.819 219.751 145.342 221.465 137.271C223.061 129.451 230.359 129.21 233.273 125.132C234.301 123.445 234.681 121.442 234.343 119.496C234.004 117.549 232.97 115.793 231.433 114.552C220.623 106.336 211.368 122.372 210.88 121.67C207.881 117.098 204.218 112.998 200.013 109.503C190.03 101.994 181.369 104.087 179.241 107.978C177.645 110.817 179.876 113.712 181.592 116.511C172.028 115.279 161.731 117.694 165.455 125.021C166.619 127.321 169.889 127.65 177.505 131.172C170.674 132.754 163.475 133.814 164.31 138.943C165.637 146.025 175.428 142.667 184.303 148.047C185.966 148.834 187.329 150.138 188.189 151.764C189.049 153.39 189.36 155.25 189.076 157.067C188.117 163.415 185.95 166.456 191.638 173.558C196.169 179.074 199.308 185.597 200.792 192.579C201.74 199.208 211.448 215.545 211.448 215.545L196.53 226.516L181.12 222.477C181.12 222.477 184.483 204.569 179.754 195.597C175.025 186.625 171.166 181.507 158.718 179.674C146.271 177.841 140.578 178.708 140.675 188.069C140.771 197.43 142.411 231.877 142.604 238.439C142.798 245.001 152.446 247.22 156.306 247.409C173.07 248.248 151.604 244.52 151.121 259.99C150.769 271.276 149.396 293.471 149.396 293.471C142.783 293.657 136.392 295.897 131.109 299.879C122.311 306.533 121.184 317.924 125.589 322.662C129.993 327.4 166.989 327.952 166.989 327.952C166.989 327.952 180.297 329.079 184.021 323.665C187.744 318.251 187.627 301.335 187.627 301.335C187.627 301.335 202.289 316.448 213.907 318.93C225.524 321.411 246.162 311.487 255.748 305.734C265.335 299.982 304.244 266.262 304.244 266.262C304.244 266.262 328.493 268.178 339.995 262.426C351.498 256.673 358.605 244.946 358.492 235.134C358.425 229.226 357.821 223.337 356.686 217.539C371.266 200.744 368.669 177.91 362.998 173.788Z" fill="#FDF6F0"/>
<path d="M262.299 128.46C257.561 132.129 253.086 136.126 248.906 140.42C244.916 145.2 242.434 151.057 241.773 157.248C241.112 163.439 242.301 169.688 245.191 175.203C246.367 177.353 246.896 180.118 248.283 182.14C256.735 194.452 267.094 206.083 281.863 208.36C293.179 210.101 306.73 206.538 313.941 197.644C316.179 194.884 317.621 192.193 319.957 189.514C328.854 179.297 330.795 163.629 317.331 144.348C313.104 138.939 308.198 134.098 302.733 129.943C291.463 120.327 272.906 119.593 269.813 120.771C266.018 122.188 265.39 125.856 262.299 128.46Z" fill="#FE7B30"/>
<path d="M197.961 294.98C211.71 314.602 230.391 306.646 230.805 308.061C231.753 309.687 209.148 318.468 194.488 297.4C180.596 277.434 192.834 257.573 194.368 258.946C195.555 259.634 184.713 276.088 197.961 294.98Z" fill="#095D6A"/>
<path d="M365.558 175.565C368.606 169.597 362.681 146.452 358.385 138.811C343.959 113.164 321.419 103.2 292.556 105.73C281.581 107.57 277.583 108.237 273.038 112.92C260.904 107.225 249.864 117.497 241.818 128.282C233.223 139.782 228.832 152.48 237.607 163.914C232.068 169.24 232.298 176.12 233.89 183.774C226.254 161.483 231.723 157.911 228.37 150.153C226.76 146.358 221.067 138.124 227.981 132.974C230.617 130.982 235.304 129.377 236.972 124.768C240.795 113.636 224.497 101.245 212.026 118.854C196.375 90.7942 171.546 99.8264 175.284 112.626C161.962 110.951 155.255 125.315 166.224 130.754C164.788 131.205 163.503 132.038 162.505 133.164C161.507 134.29 160.835 135.667 160.561 137.146C159.724 150.277 177.239 148.439 182.411 151.549C189.44 155.636 181.409 160.905 184.543 168.065C186.986 173.919 191.554 173.095 196.621 186.518C200.052 195.656 201.154 202.581 209.071 214.608C204.174 216.628 199.67 219.491 195.763 223.067C191.355 221.637 186.868 220.465 182.324 219.558C186.531 204.663 182.664 183.218 165.559 178.043C159.312 176.258 144.595 173.813 140.186 178.733C137.196 182.072 137.679 182.643 138.053 206.369C138.313 222.711 139.024 229.813 139.716 238.799C140.901 246.102 146.223 248.959 153.592 249.839C140.581 262.699 147.182 292.988 144.903 293.057C128.439 293.664 118.747 306.277 120.376 318.26C121.673 330.85 142.348 329.369 153.726 330.418C185.581 333.021 191.059 327.764 190.648 307.735C190.604 305.677 189.847 306.873 196.591 312.404C207.077 320.914 219.402 324.928 232.19 320.353C250.13 313.936 278.243 296.707 305.765 269.038C334.699 271.65 360.448 262.986 361.237 234.768C361.213 228.819 360.606 222.887 359.424 217.058C368.307 205.075 374.705 186.651 365.558 175.565ZM272.199 122.902C278.409 120.17 301.689 127.081 317.125 149.313C323.105 157.973 326.803 166.103 323.144 175.913C318.164 189.729 306.683 204.433 292.126 206.482C275.028 209.242 249.73 191.84 244.111 163.737C245.261 159.958 244.297 149.49 258.624 135.302C265.299 128.76 268.39 127.429 272.199 122.902ZM238.03 149.201C239.348 138.91 256.103 112.987 270.136 116.31C261.336 127.403 242.816 136.077 239.442 158.98C238.067 155.916 237.577 152.528 238.03 149.201V149.201ZM166.859 121.115C168.19 118.831 172.609 117.483 175.265 117.858C181.323 118.9 179.419 119.383 183.899 121.879C188.525 124.409 192.446 126.709 195.696 128.878C187.062 136.056 193.684 136.284 185.88 133.135C183.522 132.238 185.691 132.843 171.539 126.847C169.936 126.398 168.459 125.583 167.224 124.466C166.546 123.197 166.203 122.29 166.859 121.115ZM191.43 168.806C186.933 163.84 190.88 161.922 190.983 156.098C199.542 157.782 206.637 154.543 206.357 153.704C206.042 152.697 199.116 154.891 190.487 152.634C188.074 145.141 176.809 143.319 169.589 142.107C162.79 139.046 166.153 134.193 175.339 134.267C187.943 139.032 188.637 138.101 188.263 139.145C187.469 141.362 187.4 142.85 187.803 143C188.695 143.315 191.057 138.379 195.494 133.57C199.864 128.696 204.549 125.878 204.149 125.018C203.965 124.627 202.488 124.834 200.356 125.837C197.437 127.196 201.872 126.987 186.593 117.465C174.403 109.461 183.115 103.817 192.37 107.007C199.627 109.498 205.345 116.375 209.726 122.647C206.453 129.128 206.276 134.317 206.966 134.301C207.543 134.345 208.187 129.052 212.992 122.422C221.619 110.669 229.837 112.992 232.377 118.173C236.261 125.899 225.884 126.453 221.923 132.558C220.811 134.203 220.083 136.078 219.793 138.042C219.504 140.007 219.659 142.012 220.249 143.908C219.649 145.283 218.718 146.488 217.539 147.416C213.788 150.249 206.605 152.595 206.904 153.518C207.169 154.353 218.018 152.287 221.707 147.655C223.742 151.958 224.899 151.312 224.665 158.679C218.149 167.44 200.931 172.318 191.43 168.806ZM209.052 172.598C215.012 171.217 220.438 168.12 224.658 163.691C224.812 168.758 225.688 173.777 227.259 178.597C219.16 182.472 210.634 185.381 201.856 187.266C195.006 165.112 189.877 177.677 209.052 172.598ZM202.382 188.991C211.369 187.912 220.039 185.005 227.859 180.448C228.503 182.378 229.318 184.588 230.139 186.578C221.89 190.545 213.204 193.529 204.259 195.47C203.643 193.418 203.047 191.249 202.375 188.991H202.382ZM184.587 315.808C183.207 328.948 164.692 324.829 141.807 324.293C136.584 324.113 126.793 323.336 125.403 318.292C151.598 321.174 176.038 320.374 176.029 319.323C176.02 318.271 155.05 318.292 125.134 314.861C125.226 312.763 125.649 310.694 126.388 308.729C131.013 297.629 145.88 293.799 156.633 297.712C162.735 299.934 165.079 303.218 165.497 302.795C165.957 302.408 161.279 295.545 151.262 293.576C151.32 283.351 149.963 264.205 156.081 255.967C159.243 251.709 164.95 249.209 169.865 251.263C183.906 257.137 185.638 306.41 184.58 315.808H184.587ZM281.801 264.934C281.728 266.036 299.242 268.331 300.45 268.476C281.344 284.935 253.7 306.196 230.279 314.911C215.329 320.482 201.356 312.181 190.418 300.58C187.198 224.76 160.242 250.964 147.638 242.036C147.006 241.617 146.479 241.06 146.098 240.406C145.716 239.752 145.49 239.019 145.436 238.264C144.746 229.333 144.056 222.573 143.799 206.254C143.433 183.105 143.268 183.397 144.622 182.495C146.072 181.833 147.647 181.494 149.241 181.499C150.609 199.78 149.958 235.722 151.529 235.685C152.431 235.665 153.99 200.332 152.635 181.55C156.474 181.821 160.284 182.403 164.027 183.291C180.532 187.942 183.035 212.816 176.047 228.141C174.145 232.129 172.68 234.195 173.023 234.487C173.563 234.947 177.706 230.577 180.233 225.206C196.214 228.261 213.353 234.788 224.122 247.247C233.6 258.08 248.732 293.017 251.513 291.391C252.228 290.982 250.054 285.536 246.482 276.729C245.719 274.845 245.388 275.896 252.987 280.409C263.043 286.304 263.298 284.855 254.698 277.955C241.128 266.639 242.968 267.975 239.709 261.316C231.576 244.791 223.303 233.827 201.906 225.28C205.433 223.35 208.669 220.931 211.518 218.095C213.199 220.365 218.586 226.782 219.257 226.175C220.081 225.457 211.946 216.855 205.565 199.559C204.043 195.251 203.928 198.979 217.792 194.269C237.154 187.714 226.224 183.316 237.655 200.854C243.723 210.093 255.807 224.576 269.471 231.214C276.072 234.367 280.12 234.94 280.189 234.664C280.649 233.284 263.102 229.409 249.302 208.957C244.176 201.392 240.256 191.247 241.45 193.213C246.893 202.846 255.022 210.686 264.846 215.776C279.175 223.136 298.603 224.76 312.016 216.894C316.838 213.922 321.08 210.098 324.535 205.61C322.838 212.648 322.64 220.365 327.084 226.007C318.024 231.042 308.043 234.201 297.736 235.294C288.474 236.129 282.698 234.561 282.496 235.359C282.128 236.168 296.588 242.808 318.898 234.922C318.74 236.644 318.234 238.316 317.412 239.837C315.653 243.169 285.325 242.827 285.272 244.478C285.212 246.47 307.338 246.721 312.93 245.858C314.945 249.996 317.93 253.586 321.631 256.323C325.332 259.06 329.639 260.862 334.186 261.576C313.863 268.509 281.988 261.926 281.794 264.934H281.801ZM338.011 260.061C333.29 259.541 328.747 257.961 324.722 255.439C320.697 252.917 317.294 249.519 314.767 245.497C316.598 245.17 318.319 244.395 319.779 243.243C327.362 250.283 337.416 254.049 347.759 253.724C344.875 256.355 341.58 258.495 338.004 260.061H338.011ZM349.511 251.919C339.142 251.78 329.106 248.241 320.943 241.847C321.667 240.587 322.16 239.207 322.399 237.774C323.657 230.991 320.262 235.453 331.065 229.411C338.906 233.716 348.451 229.213 355.073 222.258C356.328 233.047 356.568 243.878 349.5 251.919H349.511ZM365.924 189.556C364.728 202.896 350.466 225.853 337.195 225.296C321.391 224.636 329.63 188.517 350.657 174.006C353.674 172.063 355.822 171.987 355.806 171.513C355.967 170.811 349.748 169.19 339.189 179.48C344.355 162.513 337.526 151.53 337.077 151.74C335.322 152.402 348.876 168.475 324.473 200.134C314.797 212.625 305.774 218.695 289.249 218.051C255.574 216.922 236.51 184.17 238.764 171.467C239.302 169.963 240.236 168.633 241.466 167.614C249.13 202.402 292.167 232.297 320.016 192.526C332.774 173.827 332.098 162.515 320.92 146.641C307.665 128.027 287.383 118.413 275.578 118.698C276.796 117.094 278.289 115.719 279.987 114.636C284.475 113.855 289.092 114.345 293.315 116.053C320.577 125.745 336.233 151.372 336.785 151.11C339.124 150.374 322.587 122.143 294.661 112.184C292.23 111.338 292.278 111.589 293.297 111.416C325.46 108.612 347.349 123.44 356.609 149.15C358.465 154.702 361.087 167.564 360.662 171.888C360.662 172.053 358.263 171.235 358.143 171.782C357.902 172.557 367.288 175.278 365.912 189.556H365.924Z" fill="#095D6A"/>
<path d="M135.635 132.105C132.624 146.796 132.629 146.536 132.677 146.768C133.137 149.068 140.187 140.287 148.175 139.408C144.794 143.629 142.171 148.405 140.424 153.523L151.234 151.421C154.304 150.823 157.138 151.72 156.153 152.868C150.963 156.784 146.045 161.048 141.433 165.63C122.307 184.362 123.033 187.687 119.988 191.922C118.433 193.718 116.979 195.6 115.634 197.559C113.665 201.066 113.088 206.573 108.52 204.809C104.316 203.185 95.914 201.862 95.6127 196.158C95.1688 187.837 108.55 153.76 135.635 132.105Z" fill="#FE7B30"/>
<path d="M85.5182 197.568C82.7835 191.572 96.0155 196.31 97.1977 196.322C100.878 196.342 101.809 191.894 107.9 189.113C111.163 187.623 110.609 199.815 111.826 201.563C112.249 202.079 112.778 202.496 113.378 202.787C116.038 204.334 118.57 206.091 120.95 208.04C122.401 209.229 121.962 210.227 120.333 211.088C113.714 214.581 111.032 214.926 110.482 215.552C110.179 215.899 110.326 215.63 107.281 227.261C106.483 230.313 100.993 223.227 98.7272 220.656C98.3295 220.034 97.7429 219.556 97.0537 219.293C96.3644 219.029 95.6087 218.993 94.8977 219.191C93.398 219.335 84.7477 220.186 83.7909 219.02C82.1349 217.006 89.5639 209.181 89.6835 207.028C89.8077 204.96 85.5182 199.53 85.5182 197.568Z" fill="#FBBC58"/>
<path d="M156.965 152.056C157.409 150.789 147.62 148.903 140.987 152.778C141.148 152.548 150.523 138.104 149.906 137.598C149.4 136.425 138.045 141.697 133.202 146.927C133.53 145.958 137.342 131.747 136.215 131.393C135.897 130.972 110.915 145.896 97.1606 183.738C95.8481 187.106 94.9222 190.611 94.4006 194.187C89.0393 192.98 85.9573 191.494 84.0506 194.475C82.5372 196.839 83.7447 198.063 88.0319 207.355C82.827 216.12 81.3803 217.378 82.8316 219.936C84.5221 222.905 87.059 221.815 96.6937 220.676L103.364 228.266C103.841 228.807 104.461 229.204 105.152 229.412C105.843 229.62 106.578 229.631 107.275 229.443C107.972 229.256 108.603 228.878 109.096 228.351C109.59 227.825 109.926 227.171 110.068 226.463L112.037 216.55L121.322 212.553C121.985 212.267 122.555 211.801 122.967 211.208C123.38 210.616 123.618 209.919 123.655 209.198C123.693 208.477 123.528 207.76 123.179 207.128C122.83 206.495 122.311 205.973 121.681 205.621L114.907 201.83C134.177 168.089 158.097 153.392 156.965 152.056ZM120.036 209.542C108.608 214.462 109.194 214.091 109.109 214.528C106.747 226.56 106.972 226.304 106.28 226.304C105.477 226.304 98.5567 217.141 97.7195 217.252C87.6915 218.563 86.4495 218.613 86.2057 218.613C84.7199 218.613 86.0056 217.203 91.5808 207.803C91.8108 207.417 91.9948 208.091 86.7853 196.793C86.738 196.693 86.72 196.581 86.7331 196.471C86.7463 196.361 86.7902 196.257 86.8597 196.17C86.9293 196.084 87.0218 196.019 87.1265 195.983C87.2313 195.946 87.3442 195.94 87.4523 195.965C96.0681 197.881 98.5866 198.514 98.8212 198.514C99.1593 198.514 98.5728 198.953 107.681 190.533C107.762 190.457 107.863 190.406 107.972 190.386C108.08 190.365 108.193 190.375 108.296 190.414C108.4 190.454 108.49 190.522 108.557 190.61C108.624 190.699 108.664 190.804 108.674 190.914C109.845 203.334 109.652 202.631 110.041 202.847C118.725 207.714 121.669 208.841 120.036 209.542ZM112.798 199.912L111.938 190.618C111.851 189.656 111.407 188.762 110.692 188.113C109.978 187.463 109.046 187.106 108.081 187.11C105.967 187.11 105.629 187.98 98.0346 195.004L97.0778 194.788C97.6669 191.352 98.6326 187.991 99.9574 184.766C109.479 159.828 119.047 148.96 135.002 132.915C131.948 138.96 131.322 148.155 132.443 148.217C132.84 148.73 136.737 146.345 141.507 143.438C149.375 138.594 146.682 139.408 143.312 144.714C140.389 149.275 139.31 153.629 139.908 153.827C140.154 154.45 143.874 153.417 148.464 152.87C151.753 152.431 154.617 152.525 156.036 152.382C145.762 157.787 125.271 176.5 112.798 199.912Z" fill="#095D6A"/>
<path d="M363.146 38.9532C359.887 33.2032 356.246 32.366 350.432 30.2891C341.151 26.9702 333.725 24.5161 325.488 26.4573C299.839 32.5017 286.77 70.4447 299.977 86.455C304.986 92.5316 324.964 98.8956 332.016 98.8956C355.835 98.8956 374.964 60.2603 363.146 38.9532Z" fill="#FBBC58"/>
<path d="M364.351 38.2792C360.735 31.6092 355.351 30.7099 350.898 28.978C344.228 26.5952 335.835 23.6696 328.76 24.4562C297.112 29.0079 285.208 72.5883 299.366 87.8097C304.052 93.746 327.514 101.686 334.747 99.9997C359.509 96.6601 375.761 59.1908 364.351 38.2792ZM351.07 44.9699C352.91 45.3057 355.473 45.5909 357.51 46.1199C359.746 46.6926 362.398 47.8127 364.203 48.3739C364.951 53.1514 364.841 58.0238 363.879 62.7627C354.028 61.9255 356.303 61.3367 350.042 59.2621C351.169 54.5871 351.516 49.7581 351.07 44.9699V44.9699ZM363.7 45.7749C355.319 45.0159 356.924 44.4984 350.62 42.1639C349.823 37.6983 347.587 33.6159 344.253 30.5397C343.041 29.5645 340.573 28.5686 349.817 31.9588C355.174 34.0518 361.05 34.7119 363.7 45.7703V45.7749ZM296.39 74.8929C295.373 67.4899 296.251 59.9498 298.942 52.9787C301.633 46.0075 306.05 39.8332 311.777 35.0339C332.477 17.7839 358.964 29.9325 345.918 66.1046C331.251 104.816 299.47 95.2548 296.39 74.8883V74.8929ZM317.884 94.1094C322.572 94.0111 327.154 92.6911 331.175 90.2799C334.625 91.6783 335.904 90.3857 342.83 93.9323C334.207 98.4863 328.087 97.4099 317.884 94.1048V94.1094ZM345.426 92.389C339.75 90.8779 341.107 92.3085 333.533 88.4422C336.783 85.5837 339.614 82.2823 341.944 78.635C346.611 79.785 345.065 77.8875 355.783 81.8895C353.036 86.0195 349.519 89.5825 345.426 92.3844V92.389ZM357.216 79.6677C355.376 79.3848 352.414 79.2077 350.125 78.658C347.837 78.1083 345.125 76.8732 343.363 76.2752C345.97 71.7363 347.995 66.8874 349.391 61.8427C355.199 63.2227 351.041 61.0952 363.355 65.0995C362.024 70.2255 359.956 75.1311 357.216 79.6631V79.6677Z" fill="#095D6A"/>
<path d="M312.494 88.3067C323.787 92.2995 335.579 76.832 340.142 66.8752C346.936 51.8355 346.166 31.2597 329.852 30.7652C314.564 30.2684 304.46 51.6561 305.267 52.0126C305.764 52.2426 309.198 42.4354 319.548 35.356C321.846 33.7405 324.526 32.7542 327.323 32.4952C330.12 32.2361 332.936 32.7133 335.491 33.8794C356.143 44.5261 326.151 101.854 308.08 83.5273C295.821 71.6777 307.875 46.1844 304.368 53.6548C298.733 65.6263 300.005 84.0126 312.494 88.3067Z" fill="#095D6A"/>
<path d="M315.543 61.0079L311.403 64.5729L315.288 79.3112C315.731 78.9478 313.96 80.4612 326.443 69.6926C326.517 69.6455 326.572 69.573 326.598 69.4885C326.623 69.4039 326.617 69.3131 326.581 69.2327C326.139 67.5997 325.24 64.1957 325.201 64.0738C324.419 64.7983 326.426 63.0549 318.278 70.1043C317.682 70.6149 318.314 70.4769 315.543 61.0079Z" fill="#095D6A"/>
<path d="M316.127 49.0709L317.549 54.4322C317.731 54.2781 322.436 50.2163 324.573 48.3625C324.89 48.0865 324.605 48.1509 327.186 57.5625L331.326 53.9975L327.455 39.2913L316.127 49.0709Z" fill="#095D6A"/>
<path d="M320.005 63.7793L324.154 60.1845L322.733 54.7703L318.577 58.3583L320.005 63.7793Z" fill="#095D6A"/>
<path d="M333.754 63.2894L332.363 57.9626L328.26 61.5092L329.67 66.836L333.754 63.2894Z" fill="#095D6A"/>
<path d="M312.951 51.7711C308.749 55.3936 308.882 55.136 308.977 55.4833C310.421 60.8814 310.251 60.7503 310.508 60.5249C312.192 59.0644 314.322 57.2405 314.487 57.0749C312.99 51.3939 313.181 51.5664 312.951 51.7711Z" fill="#095D6A"/>
<path d="M266.707 69.3776C286.531 55.1912 275.493 1.5 244.733 1.5C236.841 2.10354 229.044 3.60438 221.492 5.9735C201.765 13.5152 202.531 66.9603 232.497 76.3535C240.488 78.8697 260.438 73.858 266.707 69.3776Z" fill="#FBBC58"/>
<path d="M249.506 0.561583C242.714 -0.852915 233.659 1.37118 226.835 3.06168C220.972 4.63258 216.828 5.25128 212.738 11.6821C199.313 32.7961 208.95 71.3831 233.089 77.9726C240.246 80.0978 257.347 75.714 265.215 71.9489C287.674 61.2033 279.629 5.88608 249.506 0.561583ZM227.608 6.16668C238.574 3.35378 235.658 4.15648 233.979 5.30418C230.304 8.12438 227.569 11.9907 226.133 16.3948C219.799 18.0048 221.14 18.7684 212.931 18.5936C216.869 8.50578 221.579 7.77898 227.608 6.16668ZM212.046 21.1397C219.877 19.5941 213.587 20.0173 225.264 19.1778C224.074 24.0466 223.647 29.0705 223.999 34.0702C217.927 35.3559 219.783 36.3426 210.043 36.0735C209.871 31.0181 210.55 25.9698 212.053 21.1397H212.046ZM210.181 38.4908C212.004 38.109 214.422 37.4421 216.464 37.1799C219.059 36.8487 222.4 36.9797 224.224 36.7636C224.783 42.0977 225.995 47.3428 227.835 52.3805C226.039 52.7807 223.189 53.7329 220.836 54.048C218.559 54.3539 215.678 54.2044 213.828 54.278C211.867 49.2164 210.641 43.9001 210.187 38.4908H210.181ZM214.85 56.6999C225.781 53.9054 224.1 55.5315 228.852 54.9473C230.479 58.9716 232.723 62.7179 235.504 66.0517C227.44 69.159 229.179 67.8572 223.233 68.7703C219.654 65.3531 216.802 61.2473 214.85 56.6999V56.6999ZM225.485 70.654C226.958 70.0346 228.478 69.5346 230.032 69.159C232.601 68.6346 237.64 68.5035 237.537 68.1309C241.022 71.1874 245.342 73.1322 249.941 73.7153C235.49 76.8157 230.945 74.7549 225.485 70.6425V70.654ZM273.884 55.842C272.179 61.4126 269.095 66.9303 263.826 69.3522C260.093 71.5048 255.811 72.5163 251.509 72.2617C223.889 69.6719 214.511 7.80658 243.664 3.18128C263.258 2.26128 281.697 28.4974 273.884 55.8305V55.842Z" fill="#095D6A"/>
<path d="M269.371 33.6172C266.487 23.2166 275.286 51.6769 261.537 63.5173C246.741 76.6825 231.867 47.4909 232.849 27.3773C234.041 5.26509 254.929 -0.192816 266.51 26.1698C268.051 29.7532 268.58 31.8715 268.752 31.8255C268.513 29.7854 268.007 27.7856 267.246 25.8777C259.226 4.15419 242.38 3.04789 235.462 13.0782C226.191 26.0663 231.421 50.2946 243.386 63.745C256.498 78.4443 276.163 58.2733 269.371 33.6172Z" fill="#095D6A"/>
<path d="M247.707 38.6036C248.87 39.0981 250.108 39.392 251.369 39.473C254.524 39.473 257.579 35.7056 258.846 33.2101C259.18 32.5592 259.251 33.1825 257.965 30.0637C255.483 24.126 252.462 18.4287 248.938 13.0437C246.093 20.3171 243.901 27.8294 242.39 35.4917C242.817 36.6601 243.218 37.2052 247.707 38.6036ZM249.292 18.0278C252.198 22.6468 254.643 27.5402 256.592 32.6374C253.059 38.7646 250.612 37.1523 248.377 36.4485C247.132 36.0961 245.92 35.6343 244.756 35.0685C245.841 29.283 247.357 23.5868 249.292 18.0278V18.0278Z" fill="#095D6A"/>
<path d="M260.302 35.8068C250.693 43.5509 257.643 44.8596 242.079 39.0498C242.724 41.7746 243.865 44.3575 245.444 46.6697C246.564 48.5672 253.588 60.2144 255.794 60.3202C260.038 60.2052 259.92 40.4988 260.302 35.8068ZM257.708 43.8821C257.103 50.812 257.08 54.5472 255.599 57.528C252.554 53.7456 249.808 49.7323 247.385 45.5243C244.278 40.2343 246.755 45.0252 252.765 44.8527C257.278 44.74 258.214 38.07 257.708 43.8821Z" fill="#095D6A"/>
<path d="M177.53 84.615C200.64 64.6487 178.926 1.69089 141.02 1.69089C129.904 1.69089 108.849 12.1536 107.61 12.8942C98.6696 18.2118 95.8797 30.9882 95.8567 41.2715C95.7532 76.1809 122.753 103.482 143.428 99.6478C154.574 97.5525 171.41 89.8958 177.53 84.615Z" fill="#FBBC58"/>
<path d="M151.123 1.96002C138.848 -2.54337 126.079 3.04102 113.895 8.40001C107.902 11.1738 102.269 12.6274 98.0392 22.3173C84.5612 54.0825 111.048 109.685 148.669 99.8019C157.499 97.3754 171.501 91.5725 178.985 85.0957C199.198 67.6065 184.678 11.39 151.123 1.96002ZM107.228 16.5397C109.735 14.3823 122.359 9.11071 125.221 7.99291C120.15 12.4761 116.848 18.6244 115.913 25.328C108.41 28.6883 110.133 29.4082 99.7941 30.9676C100.588 25.4622 103.206 20.3822 107.228 16.5397V16.5397ZM99.2352 34.3624C108.536 30.7997 100.864 32.6374 115.45 29.0126C115.023 35.3973 115.577 41.8097 117.092 48.0267C109.732 50.9729 112.262 51.8032 99.9712 53.588C98.6498 47.2661 98.401 40.7669 99.2352 34.3624V34.3624ZM100.668 56.601C102.881 55.7224 105.776 54.3562 108.29 53.5834C111.48 52.6013 115.717 52.0355 117.95 51.3685C119.817 57.9566 122.485 64.2906 125.895 70.2285C123.721 71.1209 120.345 72.9402 117.454 73.8487C114.652 74.7319 110.993 75.1735 108.684 75.6634C105.116 69.7242 102.417 63.305 100.668 56.601V56.601ZM110.501 78.4809C112.911 77.2794 115.386 76.2143 117.916 75.2908C121.251 74.242 125.736 73.8303 127.732 73.2208C130.658 77.9297 134.299 82.1547 138.524 85.7443C129.036 91.4184 130.957 89.3921 123.677 91.837C118.429 88.3193 113.947 83.7762 110.501 78.4809V78.4809ZM126.92 93.7299C128.639 92.6292 130.443 91.6692 132.316 90.8595C135.626 89.5646 141.746 88.3962 141.535 87.9293C146.581 91.0368 152.451 92.5435 158.371 92.251C140.785 99.3373 134.637 97.6813 126.92 93.7299ZM174.873 83.7387C169.841 87.1887 166.057 89.6244 160.013 90.0821C147.133 91.0872 138.623 84.5874 131.32 74.0465C104.96 35.77 119.156 -10.8027 157.651 8.63001C189.299 27.0967 191.244 72.4963 174.873 83.7272V83.7387Z" fill="#095D6A"/>
<path d="M174.068 37.5733C171.665 32.488 174.167 39.2546 175.191 43.2773C177.889 54.2115 177.836 68.2484 170.724 76.8896C154.978 96.6811 129.908 63.2137 126.757 37.6699C123.461 9.73861 148.432 -1.98681 168.847 28.8172C171.566 32.9894 172.697 35.5401 172.9 35.4458C172.157 32.9295 171.084 30.5227 169.71 28.2882C154.87 2.6684 133.439 5.01901 126.93 19.1088C115.266 44.1628 140.566 82.6511 156.673 85.1397C174.317 88.2102 185.136 61.0264 174.068 37.5733Z" fill="#095D6A"/>
<path d="M155.408 42.969C156.891 41.5976 157.962 39.8396 158.501 37.8929C159.04 35.9461 159.025 33.8877 158.458 31.949C157.891 30.0103 156.794 28.2683 155.291 26.9186C153.788 25.569 151.939 24.6653 149.951 24.3091C149.589 20.6728 147.204 18.5315 146.574 18.9731C145.962 19.3733 146.574 21.3122 147.174 23.557C147.423 24.4402 147.674 23.787 143.724 24.155C142.508 17.9634 139.541 18.3866 141.162 24.5276C140.127 24.9188 139.12 25.3799 138.147 25.9076C139.283 30.411 143.207 39.8134 145.116 47.5276C147.025 55.2418 148.817 65.4171 150.507 69.8377C153.936 68.5681 153.171 68.5842 153.66 70.0171C154.96 73.842 158.375 75.8591 156.119 69.1799C155.956 68.6946 155.914 68.7889 156.204 68.7567C160.344 68.2967 159.641 67.4618 159.958 68.4991C162.06 75.2289 163.806 72.1032 162.442 67.7401C162.129 66.7097 162.03 67.0041 162.522 66.6867C171.674 60.9596 164.052 46.1568 155.408 42.969ZM144.044 28.939C147.216 27.973 150.176 27.1841 152.961 28.6446C154.316 29.3348 155.381 30.4839 155.967 31.8869C156.552 33.2898 156.62 34.8552 156.158 36.3036C154.613 40.7288 149.304 41.1635 146.238 41.9248C145.371 37.3938 144.684 32.6397 144.044 28.9344V28.939ZM153.628 63.8301C151.2 58.5678 149.145 53.1409 147.48 47.5897C149.955 46.6934 152.628 46.4883 155.211 46.9963C164.461 49.8667 170.499 65.3987 153.628 63.8301Z" fill="#095D6A"/>
<path d="M34.2006 55.9433C26.3185 58.586 9.33761 70.3551 6.5776 73.8166C-11.3624 96.2163 20.1246 164.57 61.0324 163.703C69.5586 163.524 87.1559 151.856 95.4152 143.428C120.322 118.007 75.5777 42.0651 34.2006 55.9433Z" fill="#FBBC58"/>
<path d="M44.1365 116.5C50.0475 125.079 65.3701 141.156 75.7201 141.878C81.9301 142.311 86.3277 138.387 88.8094 132.772C98.083 111.796 75.6994 80.0335 82.2866 89.2427C92.5768 103.606 98.9823 130.275 85.3479 141.414C80.6766 145.227 73.3879 145.91 65.538 140.972C32.3513 120.102 15.9822 70.2148 41.2454 62.6478C61.1036 56.7 81.4885 86.531 80.5961 87.1382C79.9774 87.5614 72.4587 74.2789 56.8578 66.4244C47.966 61.9463 39.042 64.3544 35.0814 69.3707C26.1666 80.6591 35.1159 103.413 44.1365 116.5Z" fill="#095D6A"/>
<path d="M31.2749 55.6145C23.2803 59.71 15.661 64.5002 8.50491 69.9297C-14.1846 88.4125 11.7594 155.828 53.7184 164.69C57.6794 165.401 61.7456 165.271 65.6531 164.308C72.1299 162.291 83.0825 156.334 94.962 145.839C96.9438 144.026 98.6295 141.915 99.9576 139.581C117.27 109.485 72.3576 37.7389 31.2749 55.6145ZM15.5475 70.2908C18.8963 67.9149 22.183 65.5919 25.495 63.5357C21.0885 69.6259 19.1009 77.1356 19.9175 84.6083C13.0612 89.4727 14.7563 89.9443 4.91691 93.1896C4.30971 77.6922 9.93781 74.2951 15.5475 70.2908ZM5.15841 96.7844C7.24221 95.4987 10.1241 93.293 12.6863 91.9015C15.0254 90.632 18.0867 89.5142 20.2763 88.5275C21.3914 95.8025 23.5431 102.88 26.6657 109.545C20.3476 113.643 22.1439 114.492 10.7221 118.156C7.78595 111.358 5.90957 104.151 5.15841 96.7844V96.7844ZM12.0975 121.169C14.133 119.883 16.7159 118.023 19.0412 116.817C22.0312 115.272 26.1436 113.975 28.2918 112.907C31.8115 119.979 36.1199 126.63 41.1351 132.733C39.0788 133.966 36.0382 136.328 33.3357 137.752C30.7436 139.116 27.2637 140.247 25.0557 141.22C19.8938 135.12 15.5385 128.381 12.0975 121.169V121.169ZM27.4109 143.854C37.9013 135.967 36.9697 138.546 43.6007 135.615C47.7507 140.405 52.5697 144.571 57.909 147.985C49.8383 155.356 51.377 153.008 44.3206 156.916C37.9185 153.649 32.1804 149.22 27.3994 143.854H27.4109ZM59.611 160.596C55.6035 160.567 51.6325 159.831 47.881 158.422C55.471 151.405 57.5594 152.741 61.4326 149.868C67.305 152.566 73.89 153.299 80.2121 151.961C75.2073 155.225 65.5197 160.83 59.588 160.596H59.611ZM96.4501 137.561C95.292 139.486 93.8594 141.232 92.1974 142.743C87.3674 146.913 85.9069 148.619 80.0074 149.735C66.3615 152.385 56.4554 145.347 46.9932 135.309C27.4868 113.802 9.47091 72.4413 34.7249 58.7448C70.0369 44.9425 113.668 108.558 96.4501 137.561Z" fill="#095D6A"/>
<path d="M68.0199 106.058C58.8705 112.371 59.5697 112.323 58.4013 111.716C50.1029 107.406 50.2064 107.716 49.9741 107.049C49.7418 106.382 48.5941 107.537 66.9688 94.7811C67.6588 94.305 67.6105 94.535 76.0193 98.8153C77.9122 99.779 76.8335 99.9722 68.0199 106.058Z" fill="#095D6A"/>
<path d="M46.5515 102.091C46.0294 101.649 46.2824 102.091 45.1715 92.5203C45.0197 91.2139 44.0031 92.2902 62.3111 79.7713C63.5508 78.9249 63.6037 81.7171 63.7463 83.0028C64.457 89.4428 64.7629 90.1029 64.0384 90.5928C45.6315 103.16 47.0575 102.518 46.5515 102.091Z" fill="#095D6A"/>
<path d="M80.1638 104.499C80.6606 104.959 80.4789 104.634 81.5438 114.251C81.6611 115.304 82.7444 114.223 64.3145 126.848C63.7326 127.246 63.291 126.618 63.2128 125.907C62.2261 116.863 61.9363 116.477 62.6447 116.001C81.1827 103.24 79.7291 104.103 80.1638 104.499Z" fill="#095D6A"/>
<path d="M399.592 294.161L391.02 290.375C384.84 303.849 338.58 411.167 337.444 412.736C336.922 411.737 321.307 350.693 321.284 350.233C321.284 350.176 321.102 351.321 321.093 351.238C321.038 351.273 321.128 350.116 321.01 350.228C308.931 365.714 307.882 367.515 301.097 376.823C300.359 374.121 291.686 343.126 291.614 342.763C287.934 344.731 260.847 367.706 259.964 366.816C258.993 365.841 273.304 349.566 295.011 332.086C295.602 334.011 298.572 343.524 298.572 343.524C304.754 361.728 303.813 360.029 304.648 358.421L325.058 330.653L339.564 386.203C339.564 386.203 379.088 295.205 382.935 286.815L374.458 283.073C374.003 282.872 373.615 282.547 373.339 282.135C373.062 281.722 372.908 281.24 372.894 280.743C372.881 280.247 373.009 279.757 373.262 279.33C373.516 278.904 373.886 278.558 374.329 278.333L394.176 268.24C394.527 268.061 394.915 267.964 395.309 267.956C395.704 267.948 396.095 268.028 396.454 268.192C396.813 268.356 397.13 268.599 397.382 268.902C397.635 269.205 397.815 269.562 397.911 269.944L403.201 291.132C403.318 291.608 403.3 292.108 403.148 292.575C402.996 293.041 402.716 293.456 402.34 293.771C401.964 294.086 401.508 294.29 401.022 294.359C400.536 294.428 400.041 294.36 399.592 294.161Z" fill="#FBBC58"/>
<path d="M395.363 267.948C398.123 267.948 397.55 268.507 403.199 291.125C403.318 291.601 403.301 292.102 403.149 292.569C402.998 293.036 402.719 293.452 402.343 293.768C401.967 294.084 401.51 294.289 401.024 294.358C400.538 294.428 400.042 294.359 399.593 294.161L391.02 290.375C384.843 303.848 338.58 411.167 337.444 412.735C336.846 411.585 321.374 350.228 321.011 350.228C305.511 370.365 312.006 361.859 301.097 376.823C300.359 374.12 291.686 343.128 291.614 342.762C288.231 344.572 260.794 367.648 259.964 366.816C258.198 365.047 281.474 343.526 285.678 339.8C286.103 339.423 292.7 333.949 295.011 332.088C295.603 334.013 298.572 343.526 298.572 343.526C304.759 361.753 303.814 360.028 304.648 358.423L325.059 330.655L339.565 386.205C339.565 386.205 379.088 295.207 382.936 286.817L374.458 283.075C374.004 282.874 373.616 282.549 373.339 282.137C373.062 281.724 372.908 281.242 372.895 280.745C372.881 280.249 373.009 279.759 373.263 279.332C373.517 278.905 373.887 278.559 374.329 278.334C395.908 267.354 394.473 267.948 395.363 267.948ZM395.363 264.086C393.166 264.086 393.684 264.153 372.579 274.884C371.485 275.44 370.572 276.295 369.944 277.35C369.317 278.404 369.002 279.615 369.035 280.841C369.069 282.068 369.45 283.26 370.134 284.278C370.817 285.297 371.776 286.101 372.899 286.596L377.798 288.76C374.559 295.863 344.797 364.401 340.492 374.357L326.738 321.846L305.2 351.031C300.115 335.763 301.98 341.619 297.028 325.501C285.537 334.432 274.694 344.169 264.582 354.637C256.778 362.975 254.136 366.425 257.222 369.532C261.537 373.874 266.374 366.82 289.252 349.2C289.712 350.81 299.487 385.577 299.487 385.577L319.38 358.582C335.689 422.025 332.173 410.987 336.899 420.019C341.888 413.186 342.431 413.004 345.74 404.205C348.383 397.169 392.559 296.298 392.943 295.449C398.187 297.765 398.87 298.253 400.655 298.253C401.639 298.251 402.61 298.025 403.494 297.593C404.378 297.161 405.152 296.533 405.757 295.757C406.363 294.982 406.784 294.079 406.989 293.116C407.194 292.154 407.178 291.158 406.941 290.203L401.651 269.017C401.305 267.611 400.498 266.361 399.358 265.467C398.218 264.573 396.811 264.087 395.363 264.086V264.086Z" fill="#095D6A"/>
</svg>
