<svg width="70" height="112" viewBox="0 0 70 112" fill="none" xmlns="http://www.w3.org/2000/svg">
<path d="M0.844132 102.648C0.447103 103.375 0.71467 104.286 1.44176 104.683L13.2904 111.153C14.0175 111.55 14.9287 111.282 15.3258 110.555C15.7228 109.828 15.4552 108.917 14.7281 108.52L4.19604 102.769L9.94712 92.2368C10.3442 91.5097 10.0766 90.5984 9.3495 90.2014C8.62241 89.8044 7.71113 90.0719 7.3141 90.799L0.844132 102.648ZM60.1385 13.7526C59.7686 13.0113 58.8678 12.7103 58.1265 13.0802C57.3853 13.4501 57.0842 14.3508 57.4541 15.0921L60.1385 13.7526ZM2.58323 104.806C23.1472 98.7678 43.2342 87.6394 55.3591 72.1909C61.4352 64.4493 65.5256 55.6023 66.6347 45.7713C67.7444 35.9358 65.8585 25.2158 60.1385 13.7526L57.4541 15.0921C62.9509 26.1078 64.69 36.2489 63.6537 45.4349C62.6168 54.6254 58.7902 62.9602 52.9992 70.3387C41.3898 85.1303 21.9421 95.995 1.73806 101.927L2.58323 104.806Z" fill="#F57B51"/>
<ellipse cx="58.8138" cy="12.7006" rx="6.99" ry="7.11729" transform="rotate(-83.955 58.8138 12.7006)" fill="#F57B51"/>
</svg>
