<svg width="152" height="798" viewBox="0 0 152 798" fill="none" xmlns="http://www.w3.org/2000/svg">
<path d="M73.3786 663.724C62.4351 663.685 49.144 669.984 39.1321 674.753C30.5682 679.034 24.3585 681.3 20.0712 692.531C5.99684 729.404 33.086 785.992 72.4732 788.547C84.2065 789.569 109.249 777.389 120.219 769.084C151.532 745.379 121.615 662.432 73.3786 663.724ZM41.3078 679.307C57.3666 671.494 53.1132 673.657 50.8812 675.961C46.0936 681.481 43.0888 688.32 42.262 695.58C32.9818 700.07 35.2954 700.827 22.5542 703.151C25.4511 686.316 32.501 683.704 41.3078 679.307ZM21.9904 707.366C33.605 702.502 24.0172 705.144 41.798 700.156C41.4982 708.057 42.4265 715.956 44.55 723.571C35.5725 727.477 38.7528 728.416 23.6145 731.078C21.7512 723.32 21.2058 715.303 22.0011 707.364L21.9904 707.366ZM24.5917 734.77C27.2898 733.604 30.8148 731.809 33.8883 730.758C37.7931 729.427 42.9992 728.573 45.7496 727.662C48.2982 735.729 51.8303 743.452 56.2661 750.656C53.6165 751.842 49.5134 754.215 45.9767 755.445C42.5545 756.638 38.0534 757.317 35.2189 758.016C30.5885 750.813 27.0134 742.984 24.6024 734.768L24.5917 734.77ZM37.5625 761.436C53.5738 753.662 51.4894 756.706 58.6484 754.302C62.4355 760.007 67.0876 765.087 72.4377 769.361C60.9577 776.711 63.2334 774.15 54.3336 777.44C47.7217 773.29 42.017 767.847 37.5625 761.436V761.436ZM58.4089 779.64C60.4898 778.217 62.6817 776.963 64.9636 775.892C68.7682 774.27 76.5147 772.474 76.237 771.931C82.5895 775.553 89.8798 777.193 97.1714 776.641C75.8184 786 68.1434 784.252 58.4052 779.622L58.4089 779.64ZM128.525 741.452C127.652 750.599 124.629 760.101 117.251 765.51C112.162 770.016 105.864 772.933 99.1362 773.899C55.6317 778.626 21.5868 685.981 65.1782 669.619C95.1682 662.004 131.957 696.723 128.521 741.434L128.525 741.452Z" fill="#095D6A"/>
<path d="M114.529 708.53C106.784 693.368 129.379 734.571 111.872 757.215C93.1674 782.237 60.9541 741.825 56.1148 710.43C50.9673 675.88 81.5242 660.843 107.753 697.925C111.267 702.976 112.754 706.083 113.006 705.957C111.992 702.88 110.577 699.949 108.798 697.241C89.5379 666.204 63.1551 669.818 55.6334 687.506C45.4102 710.508 61.1507 746.299 83.8923 763.304C108.802 781.876 132.818 744.488 114.529 708.53Z" fill="#095D6A"/>
<path d="M82.6251 723.083C84.5783 723.48 86.5845 723.543 88.5587 723.27C93.4355 722.272 96.9652 715.485 98.135 711.228C98.4447 710.116 98.7519 711.057 95.7792 706.643C90.0669 698.252 83.5961 690.402 76.4483 683.193C74.3505 695.333 73.3382 707.636 73.4235 719.955C74.454 721.625 75.2447 722.341 82.6251 723.083ZM78.571 690.784C84.5218 697.004 89.8473 703.794 94.4706 711.055C90.9474 721.641 86.6558 719.922 82.9784 719.541C80.9428 719.39 78.9246 719.06 76.9474 718.553C76.7946 709.269 77.3373 699.987 78.571 690.784V690.784Z" fill="#095D6A"/>
<path d="M101.204 714.781C88.8008 729.786 99.9562 729.612 74.0665 725.552C75.9246 729.559 78.5037 733.191 81.6751 736.265C84.0059 738.843 98.5426 754.623 101.985 754.09C108.507 752.571 102.097 722.153 101.204 714.781ZM99.7468 728.081C101.002 738.982 102.147 744.761 100.8 749.836C94.8994 744.953 89.3871 739.619 84.3131 733.881C77.839 726.688 83.1814 733.309 92.4149 731.143C99.3532 729.543 98.6918 718.939 99.7468 728.081Z" fill="#095D6A"/>
<path d="M83.2472 105.037C95.7099 105.475 99.4602 88.0843 92.9547 80.2123C103.97 78.6082 107.483 67.0323 100.787 60.8704C102.858 57.5373 102.271 54.1855 101.49 54.1486C100.71 54.1117 100.019 56.321 98.7599 59.3573C94.6678 56.8076 94.8917 57.8686 95.4024 56.7353C98.1033 50.713 95.2165 50.1844 92.743 56.4323C90.9377 55.7792 89.9861 55.7909 89.3651 55.5337C89.3404 55.5559 83.8165 71.7332 80.9352 78.543C69.8219 104.819 69.715 100.815 74.0007 102.127C71.9588 106.517 73.4415 112.186 76.2934 103.141C77.6859 103.836 79.1569 104.361 80.6748 104.704C77.3587 112.948 81.6233 110.776 83.2472 105.037ZM85.2789 74.6311C87.6192 69.9318 90.2922 65.124 92.2198 61.4008C94.0858 61.8114 95.9137 62.379 97.684 63.0977C98.8479 63.562 99.8551 64.349 100.587 65.366C101.319 66.3831 101.746 67.588 101.816 68.8392C101.887 70.0903 101.599 71.3356 100.987 72.4288C100.374 73.522 99.4622 74.4175 98.3581 75.0102C94.0884 77.601 89.509 75.8226 85.2789 74.6311ZM77.1807 97.9549C78.6327 91.7803 80.5241 85.7174 82.8405 79.8125C85.8133 80.3298 88.583 81.6661 90.838 83.6712C97.4167 91.453 92.0221 108.419 77.1807 97.9549Z" fill="#095D6A"/>
<path d="M65.9519 69.6756C87.1645 23.6585 129.654 34.4211 112.025 81.0998C111.246 83.6716 110.065 86.1039 108.526 88.3065C108.303 88.2071 109.435 85.5937 110.889 80.7129C121.079 46.5523 103.406 35.0793 86.4077 47.8915C69.5141 60.6174 51.9589 101.233 68.1651 114.42C74.1649 119.284 81.8512 116.416 88.282 112.234C103.562 102.304 106.356 89.9099 107.511 90.4945C106.705 93.0521 105.611 95.5099 104.25 97.8206C81.4365 136.924 42.5552 120.43 65.9519 69.6756Z" fill="#095D6A"/>
<path d="M105.57 114.138C128.35 87.3929 137.818 45.7513 109.111 28.2185C98.7647 21.9065 76.7882 16.8626 65.7223 21.8168C35.3268 34.8443 8.13944 112.732 47.7148 125.918C66.1543 132.305 81.2853 142.382 105.57 114.138ZM96.9508 28.0889C104.833 30.7683 93.5892 25.0606 77.3661 38.8071C76.1046 38.375 78.8929 39.1506 56.6922 33.6183C65.0735 25.3597 74.3469 20.7232 96.9508 28.0889ZM53.6379 36.8653C63.4487 36.8601 65.7533 37.2468 74.1894 41.6608C69.3333 46.2873 65.0556 51.4851 61.4498 57.1405C58.7512 56.3654 54.6236 55.7029 51.3741 55.0012C51.1723 54.7769 43.2044 52.7425 42.8477 52.6574C45.844 47.0073 49.4633 41.7103 53.6379 36.8653V36.8653ZM32.7068 80.145C34.4639 71.853 37.2519 63.8136 41.0059 56.2142C49.9578 56.044 51.5318 56.1827 59.4308 60.4508C55.5535 67.0586 52.6611 74.1967 50.8449 81.6397C41.5232 82.378 42.1478 83.862 32.6967 80.1337L32.7068 80.145ZM32.108 83.7525C36.4002 84.1737 40.129 84.0544 40.3328 84.281C43.5005 84.7112 47.4998 85.5786 50.0161 85.7179C48.7247 92.7587 48.8623 99.9873 50.421 106.974C40.6822 107.88 40.7691 107.611 32.8479 103.44C31.4106 96.9731 31.1565 90.299 32.0979 83.7413L32.108 83.7525ZM49.134 121.787C45.7634 120.738 42.675 118.937 40.1016 116.52C37.5283 114.104 35.537 111.135 34.2781 107.837C36.3966 108.224 38.8667 108.551 40.9229 108.906C52.4969 111.565 51.4046 111.37 51.392 110.476C57.4428 129.299 70.9704 128.309 49.1239 121.776L49.134 121.787ZM55.0929 112.501C40.854 77.0859 80.4143 24.4308 106.19 32.3038C154.82 62.2597 75.584 168.592 55.0829 112.49L55.0929 112.501Z" fill="#095D6A"/>
</svg>
