<svg width="102" height="802" viewBox="0 0 102 802" fill="none" xmlns="http://www.w3.org/2000/svg">
<path d="M37.503 745.243L33.291 748.87L37.2433 763.864C37.6949 763.495 35.8931 765.034 48.5923 754.079C48.6682 754.031 48.7243 753.957 48.7501 753.871C48.7759 753.785 48.7697 753.692 48.7327 753.611C48.2834 751.949 47.3685 748.486 47.3287 748.362C46.5331 749.099 48.5759 747.325 40.2853 754.497C39.6792 755.017 40.3227 754.877 37.503 745.243Z" fill="#095D6A"/>
<path d="M38.0977 733.098L39.5438 738.553C39.7286 738.396 44.5163 734.264 46.6901 732.378C47.013 732.097 46.7229 732.162 49.3484 741.738L53.5604 738.111L49.6222 723.149L38.0977 733.098Z" fill="#095D6A"/>
<path d="M42.043 748.062L46.2644 744.405L44.8182 738.897L40.5898 742.547L42.043 748.062Z" fill="#095D6A"/>
<path d="M56.0311 747.564L54.6155 742.145L50.4409 745.753L51.8753 751.172L56.0311 747.564Z" fill="#095D6A"/>
<path d="M34.8659 735.845C30.5907 739.531 30.7265 739.269 30.8224 739.622C32.2919 745.114 32.1188 744.981 32.3808 744.751C34.0937 743.266 36.2605 741.41 36.429 741.241C34.9057 735.462 35.0999 735.637 34.8659 735.845Z" fill="#095D6A"/>
<path d="M65.0228 751.037C83.6133 707.82 49.8001 685.176 28.5281 726.33C27.2366 728.464 26.2909 730.79 25.7262 733.22C25.9335 733.312 27.0347 730.908 29.5003 726.873C46.7516 698.627 65.6448 703.702 67.3567 723.391C69.0631 742.953 51.9295 780.291 32.7646 777.293C25.6814 776.173 22.8879 769.087 21.7811 762.051C19.1473 745.338 25.9672 735.713 24.8464 735.279C23.5818 737.424 22.5647 739.705 21.8148 742.079C8.99049 782.107 44.5185 798.703 65.0228 751.037Z" fill="#095D6A"/>
<path d="M9.73216 751.3C14.0471 718.969 36.9105 686.577 66.8375 695.503C77.6192 698.726 94.7472 710.762 98.1991 721.477C108.081 750.547 71.2029 817.677 37.5269 798.549C21.6682 789.787 5.31638 785.601 9.73216 751.3ZM74.4783 703.817C67.7341 700.04 78.6559 704.256 79.2415 723.99C80.323 724.593 78.0563 723.15 95.6606 735.038C96.1565 724.125 93.5984 714.845 74.4783 703.817ZM95.316 739.162C89.2275 732.387 87.5295 731.037 79.2443 727.955C79.0664 734.18 78.135 740.36 76.4704 746.361C78.6811 747.742 81.7016 750.179 84.2037 751.987C84.4839 751.987 90.8357 756.223 91.1159 756.416C93.1553 750.84 94.5641 745.052 95.316 739.162V739.162ZM78.4402 780.485C83.0725 774.123 86.8903 767.206 89.8046 759.896C84.3634 753.612 83.2902 752.612 75.4393 749.81C73.286 756.589 70.1551 763.018 66.1455 768.893C71.4242 775.786 70.0121 776.276 78.4542 780.485H78.4402ZM76.3219 783.138C73.3659 780.437 71.1328 777.789 70.8498 777.789C68.5859 775.87 65.5038 773.648 63.8451 771.998C59.7873 777.261 54.7124 781.655 48.9222 784.917C54.3439 792.202 54.4756 791.975 62.2732 794.853C67.6297 791.829 72.3941 787.86 76.3359 783.138H76.3219ZM39.4967 795.004C42.3139 796.679 45.4747 797.693 48.7406 797.968C52.0065 798.244 55.2924 797.775 58.3506 796.596C56.7675 795.374 55.0079 793.872 53.4865 792.673C44.4644 786.335 45.277 786.968 45.9018 786.422C29.1521 793.934 21.4357 783.982 39.5107 795.004H39.4967ZM42.2061 785.125C75.4926 772.962 87.2717 712.959 65.8317 700.056C14.9577 685.092 -9.23386 805.811 42.2201 785.125H42.2061Z" fill="#095D6A"/>
<path d="M40.5632 59.3775C41.1338 60.9588 41.5071 63.0577 42.726 62.441C43.4305 62.083 56.7438 45.1497 56.8568 44.9995C57.5463 44.0691 57.2742 43.2505 56.1964 43.1364C51.1648 42.6177 49.6018 42.1388 48.0775 44.0676C38.2507 56.5094 38.8183 54.529 40.5632 59.3775Z" fill="#095D6A"/>
<path d="M35.848 46.1701C38.0094 52.1831 37.3343 51.8014 43.5568 43.8203C44.3745 42.7716 43.9496 41.9591 42.8995 41.8555C33.5636 40.9877 33.6391 40.0166 35.848 46.1701Z" fill="#095D6A"/>
<path d="M58.8464 60.5805C84.7021 30.3308 63.0653 3.55789 35.5606 31.4693C33.982 32.8697 32.6349 34.5111 31.5693 36.3326C31.7136 36.4592 33.206 34.7933 36.2097 32.1522C57.2292 13.6603 71.2193 22.4974 67.6649 38.8321C64.1375 55.0636 40.9329 80.93 26.2026 73.702C20.7616 71.0204 20.2819 64.5955 21.1521 58.6344C23.2157 44.4723 31.1386 38.4075 30.3421 37.7756C28.7827 39.191 27.3889 40.7789 26.1877 42.5088C5.78986 71.6288 30.329 93.9448 58.8464 60.5805Z" fill="#095D6A"/>
<path d="M14.1147 46.9279C25.7082 21.8918 52.3014 1.45729 74.2389 16.1736C82.1407 21.4804 92.9588 35.4995 93.0605 45.0207C93.7539 70.9825 47.1274 115.965 24.7197 92.0671C14.1056 81.0122 1.94569 73.53 14.1147 46.9279ZM78.3267 24.8055C73.8257 20.063 81.5912 26.2085 77.1156 42.297C77.8382 43.0548 76.3689 41.3207 87.609 55.3393C90.7464 46.6475 91.007 38.5093 78.3267 24.8055ZM86.2963 58.5847C83.0768 51.5848 82.0438 50.068 76.1236 45.5005C74.4189 50.4844 72.1166 55.2435 69.2671 59.6736C70.7066 61.3439 72.5353 64.0706 74.1034 66.158C74.3297 66.2282 78.3986 71.2435 78.5765 71.4699C81.6225 67.4764 84.2119 63.1544 86.2963 58.5847V58.5847ZM62.3008 87.7344C67.6384 83.7569 72.457 79.1268 76.6445 73.9523C73.8249 67.5108 73.2088 66.4337 67.5692 62.2014C64.1295 67.138 59.988 71.5464 55.2756 75.2873C57.8114 82.1792 56.5477 82.2212 62.3122 87.738L62.3008 87.7344ZM59.9243 89.3468C58.2136 86.4235 57.0737 83.7245 56.845 83.6535C55.4975 81.5353 53.5648 78.9675 52.6387 77.2183C48.0407 80.4527 42.8392 82.7294 37.3436 83.9129C39.8965 91.1576 40.0598 91.0073 45.6375 95.2873C50.7229 94.1878 55.5671 92.1763 59.9356 89.3503L59.9243 89.3468ZM27.1997 89.6977C29.0556 91.7573 31.3548 93.3687 33.924 94.4104C36.4932 95.4521 39.2654 95.897 42.0315 95.7115C41.059 94.3276 40.0142 92.6731 39.0859 91.3228C33.3868 83.9403 33.8845 84.6556 34.5262 84.371C19.1114 86.2389 15.3736 76.264 27.211 89.7013L27.1997 89.6977ZM31.866 82.3962C61.8063 80.9178 86.369 35.3995 72.2846 19.5995C34.9395 -5.24755 -14.8767 86.2076 31.8773 82.3997L31.866 82.3962Z" fill="#095D6A"/>
</svg>
