<svg width="69" height="82" viewBox="0 0 69 82" fill="none" xmlns="http://www.w3.org/2000/svg">
<path d="M23.7247 39.5009C30.4128 44.1161 29.9017 44.0808 30.7558 43.6369C36.8219 40.4862 36.7463 40.7132 36.9161 40.2256C37.0859 39.738 37.9249 40.582 24.493 31.2576C23.9886 30.9096 24.0239 31.0777 17.8771 34.2066C16.4934 34.911 17.2819 35.0523 23.7247 39.5009Z" fill="#095D6A"/>
<path d="M39.4172 36.6008C39.7988 36.278 39.6139 36.6008 40.426 29.605C40.5369 28.65 41.2801 29.4368 27.897 20.2856C26.9908 19.6668 26.9521 21.7079 26.8478 22.6478C26.3283 27.3554 26.1047 27.8379 26.6343 28.196C40.0897 37.3826 39.0473 36.9135 39.4172 36.6008Z" fill="#095D6A"/>
<path d="M14.8472 38.361C14.484 38.6973 14.6168 38.4602 13.8384 45.4897C13.7527 46.2597 12.9608 45.4695 26.433 54.6981C26.8583 54.989 27.1811 54.53 27.2383 54.0105C27.9596 47.3996 28.1714 47.1172 27.6536 46.7692C14.1024 37.4413 15.1649 38.0718 14.8472 38.361Z" fill="#095D6A"/>
<path d="M42.4548 43.2219C56.5426 10.473 30.9193 -6.68705 14.7996 24.4992C13.8209 26.1166 13.1043 27.8788 12.6763 29.7202C12.8335 29.7903 13.6679 27.9685 15.5364 24.9111C28.6092 3.50665 42.9262 7.35183 44.2235 22.2719C45.5166 37.0964 32.5329 65.3907 18.0099 63.1188C12.6424 62.2695 10.5255 56.8999 9.68681 51.5684C7.69096 38.9032 12.8589 31.6099 12.0096 31.2808C11.0513 32.906 10.2806 34.6348 9.7123 36.4339C-0.00579505 66.7666 26.9169 79.3425 42.4548 43.2219Z" fill="#095D6A"/>
<path d="M0.554844 43.4215C3.82464 18.9214 21.1503 -5.62543 43.8287 1.13923C51.9989 3.58096 64.9783 12.7024 67.5942 20.8217C75.0828 42.8503 47.1367 93.7212 21.6174 79.2258C9.59986 72.5864 -2.79139 69.4143 0.554844 43.4215ZM49.6188 7.43889C44.5081 4.57676 52.7845 7.77224 53.2283 22.7262C54.0479 23.1827 52.3302 22.0893 65.6705 31.0982C66.0463 22.8282 64.1078 15.796 49.6188 7.43889ZM65.4093 34.2236C60.7955 29.0896 59.5088 28.0662 53.2304 25.7306C53.0956 30.4477 52.3898 35.131 51.1284 39.6782C52.8036 40.725 55.0925 42.5722 56.9885 43.9417C57.2009 43.9417 62.0143 47.152 62.2266 47.2985C63.772 43.0726 64.8396 38.687 65.4093 34.2236V34.2236ZM52.621 65.5372C56.1314 60.7164 59.0245 55.4751 61.2329 49.9356C57.1096 45.1732 56.2964 44.4152 50.347 42.2919C48.7152 47.4293 46.3427 52.3011 43.3042 56.7534C47.3044 61.9765 46.2343 62.3481 52.6317 65.5372H52.621ZM51.0159 67.5479C48.7758 65.5011 47.0836 63.4947 46.8692 63.4947C45.1536 62.0402 42.818 60.3565 41.5611 59.1059C38.4861 63.0945 34.6404 66.4239 30.2527 68.8962C34.3611 74.4166 34.4609 74.2446 40.3699 76.4252C44.4289 74.1338 48.0394 71.1262 51.0265 67.5479H51.0159ZM23.1101 76.5399C25.245 77.8091 27.6401 78.5771 30.115 78.786C32.5899 78.9949 35.0799 78.6393 37.3974 77.7459C36.1977 76.8201 34.8643 75.6821 33.7114 74.7733C26.8746 69.9706 27.4903 70.4504 27.9638 70.0364C15.271 75.7288 9.42363 68.187 23.1207 76.5399H23.1101ZM25.1632 69.0533C50.3874 59.8363 59.3135 14.367 43.0664 4.5895C4.51469 -6.75075 -13.8174 84.7292 25.1739 69.0533H25.1632Z" fill="#095D6A"/>
</svg>
